# xmcd CD database file
# Copyright (C) 1993-1998 Ti Kan
# 
# Track frame offsets:
#     150
#     13255
#     29650
#     42165
#     57640
#     70190
#     85842
#     99147
#     114875
#     132170
#     143180
#     158942
#     172800
#     190157
#     202807
#     217187
#     231835
#     245415
#     259775
#     272222
# 
# Disc length: 3932 seconds
# 
# Revision: 1
# Processed by: cddbd v1.4b41PL1 Copyright (c) Steve Scherf et al.
# Submitted via: DiscPlay 4.0.4
# 
DISCID=1c0f5a14
DTITLE=The Oak Ridge Boys - Y'All Come Back Saloon/Have Arrived
DYEAR=1900
DGENRE=
TTITLE0=Y'All Come Back Saloon
TTITLE1=I'll Be True To You
TTITLE2=An Old Time Family Bluegrass Band
TTITLE3=Didn't She Really Thrill Them (Back In 1924)
TTITLE4=Old Time Lovin'
TTITLE5=Freckles
TTITLE6=You're The One
TTITLE7=Let Me Be The One
TTITLE8=Easy
TTITLE9=Emmylou
TTITLE10=Sail Away
TTITLE11=There Must Be Something About Me That She Loves
TTITLE12=Sometimes The Rain Won't Let Me Sleep
TTITLE13=I Gotta Get Over This
TTITLE14=My Radio Sure Sounds Good To Me
TTITLE15=Dream On
TTITLE16=Leaving Lousiana In The Broad Daylight
TTITLE17=Every Now And Then
TTITLE18=Dig A Little Deeper In The Well
TTITLE19=Dancing The Night Away
EXTD=
EXTT0=
EXTT1=
EXTT2=
EXTT3=
EXTT4=
EXTT5=
EXTT6=
EXTT7=
EXTT8=
EXTT9=
EXTT10=
EXTT11=
EXTT12=
EXTT13=
EXTT14=
EXTT15=
EXTT16=
EXTT17=
EXTT18=
EXTT19=
PLAYORDER=
